<svg
  xmlns="http://www.w3.org/2000/svg"
  width="24"
  height="24"
  viewBox="0 0 24 24"
  fill="currentColor"
>
  <path d="M12 .5C5.73.5.75 5.48.75 11.75c0 5.01 3.24 9.26 7.74 10.75.57.11.78-.25.78-.55v-2.02c-3.15.69-3.82-1.35-3.82-1.35-.52-1.33-1.28-1.68-1.28-1.68-1.05-.72.08-.7.08-.7 1.16.08 1.77 1.19 1.77 1.19 1.03 1.77 2.71 1.26 3.37.97.1-.75.4-1.26.72-1.55-2.52-.29-5.16-1.26-5.16-5.6 0-1.24.44-2.26 1.18-3.06-.12-.29-.51-1.46.11-3.04 0 0 .96-.31 3.14 1.17a10.9 10.9 0 0 1 5.72 0c2.18-1.48 3.14-1.17 3.14-1.17.62 1.58.23 2.75.11 3.04.74.8 1.18 1.82 1.18 3.06 0 4.35-2.65 5.31-5.18 5.59.41.35.78 1.05.78 2.12v3.14c0 .3.2.66.79.55 4.49-1.5 7.72-5.74 7.72-10.75C23.25 5.48 18.27.5 12 .5z"/>
</svg>
